<svg xmlns="http://www.w3.org/2000/svg" viewBox="0 0 897.21 137.38"><title>Asset 4</title><circle cx="68.69" cy="68.69" r="68.69" style="fill:#be1e2d"/><path d="M189.89,66.87h52.39V73.5H189.89v41.21h-7V23.58H244.1v7H189.89Z" style="fill:#fff"/><path d="M261,114.58v-91h6.89v91Z" style="fill:#fff"/><path d="M294.93,23.58V108h51.22v6.63H287.91v-91Z" style="fill:#fff"/><path d="M438.84,33.72,404,87h-2.33l-35.11-53.3v80.86h-7v-91h8.32l34.85,53,34.45-53h8.58v91h-6.89Z" style="fill:#fff"/><path d="M520,45.55c-3.12-5.2-11.7-10.14-21.58-10.14-12.74,0-18.85,5.33-18.85,12.09,0,7.93,9.36,10.14,20.28,11.44,19,2.34,36.66,7.28,36.66,29,0,20.28-17.94,29-38.22,29-18.59,0-32.89-5.72-39.65-22.36l14.3-7.41c4,10,14.56,14.43,25.61,14.43,10.79,0,20.93-3.77,20.93-13.65,0-8.58-9-12.09-21.06-13.39-18.59-2.21-35.75-7.15-35.75-27.56,0-18.72,18.46-26.39,35.23-26.52,14.17,0,28.86,4,35.75,18.07Z" style="fill:#fff"/><path d="M629.93,103.14c-9.36,9.23-21.45,13.52-34.58,13.52-33.8,0-48.1-23.27-48.23-46.93s15.34-48,48.23-48a47,47,0,0,1,33.41,13.91l-11.44,11a31.26,31.26,0,0,0-22-8.58c-22,0-31.46,16.38-31.33,31.59s8.84,30.81,31.33,30.81a33.5,33.5,0,0,0,22.88-9.23Z" style="fill:#fff"/><path d="M729,69.6c-.26,23.53-14.69,47.06-46.67,47.06s-46.8-23-46.8-46.93,15.34-48,46.8-48S729.25,45.81,729,69.6ZM652.42,70c.39,15,8.45,30.94,29.9,30.94s29.51-16.12,29.77-31.07c.26-15.34-8.32-32.5-29.77-32.5S652,54.65,652.42,70Z" style="fill:#fff"/><path d="M822.33,114.58H801.92L775.4,84.16H758.89v30.42H741.73V23.45c14.43,0,28.86.13,43.29.13,21.45.13,32.76,14.43,32.76,30.16,0,12.48-5.72,25.09-23,28.6l27.56,31.07Zm-63.44-75V68.69H785c10.92,0,15.6-7.28,15.6-14.56S795.81,39.57,785,39.57Z" style="fill:#fff"/><path d="M897.21,114.58H829.09v-91h68.12V40.22H846.12V61.15h49.27v16H846.12V97.68h51.09Z" style="fill:#fff"/></svg>